<?xml version="1.0" encoding="iso-8859-1"?>
<!-- Generator: Adobe Illustrator 19.2.0, SVG Export Plug-In . SVG Version: 6.00 Build 0)  -->
<svg xmlns="http://www.w3.org/2000/svg" xmlns:xlink="http://www.w3.org/1999/xlink" version="1.1" id="Layer_1" x="0px" y="0px" viewBox="0 0 40 40" style="enable-background:new 0 0 40 40;" xml:space="preserve">
<g>
	<rect x="3.5" y="7.5" style="fill:#DFF0FE;" width="33" height="29"/>
	<path style="fill:#4788C7;" d="M36,8v28H4V8H36 M37,7H3v30h34V7L37,7z"/>
</g>
<g>
	<rect x="2.5" y="3.5" style="fill:#DFF0FE;" width="35" height="4"/>
	<path style="fill:#4788C7;" d="M37,4v3H3V4H37 M38,3H2v5h36V3L38,3z"/>
</g>
<g>
	<path style="fill:#4788C7;" d="M24.5,15h-9c-0.828,0-1.5-0.672-1.5-1.5v0c0-0.828,0.672-1.5,1.5-1.5h9c0.828,0,1.5,0.672,1.5,1.5v0   C26,14.328,25.328,15,24.5,15z"/>
</g>
</svg>
