<?xml version="1.0" encoding="iso-8859-1"?>
<!-- Generator: Adobe Illustrator 21.0.2, SVG Export Plug-In . SVG Version: 6.00 Build 0)  -->
<svg xmlns="http://www.w3.org/2000/svg" xmlns:xlink="http://www.w3.org/1999/xlink" version="1.1" id="Layer_1" x="0px" y="0px" viewBox="0 0 40 40" style="enable-background:new 0 0 40 40;" xml:space="preserve">
<g>
	<polygon style="fill:#DFF0FE;" points="33.5,38.5 33.5,35.5 5.5,35.5 5.5,38.5 1.5,38.5 1.5,1.5 37.5,1.5 37.5,38.5  "/>
	<path style="fill:#4788C7;" d="M37,2v36h-3v-2v-1h-1H6H5v1v2H2V2H37 M38,1H1v38h5v-3h27v3h5V1L38,1z"/>
</g>
<line style="fill:#F5CE85;stroke:#4788C7;stroke-miterlimit:10;" x1="1" y1="35.5" x2="38" y2="35.5"/>
<line style="fill:#F5CE85;stroke:#4788C7;stroke-miterlimit:10;" x1="1" y1="29.5" x2="38" y2="29.5"/>
<line style="fill:#F5CE85;stroke:#4788C7;stroke-miterlimit:10;" x1="1" y1="23.5" x2="38" y2="23.5"/>
<line style="fill:#F5CE85;stroke:#4788C7;stroke-miterlimit:10;" x1="19.5" y1="1" x2="19.5" y2="24"/>
<line style="fill:none;stroke:#4788C7;stroke-linecap:round;stroke-miterlimit:10;" x1="22.5" y1="11.5" x2="22.5" y2="16.5"/>
<line style="fill:none;stroke:#4788C7;stroke-linecap:round;stroke-miterlimit:10;" x1="16.5" y1="11.5" x2="16.5" y2="16.5"/>
<line style="fill:none;stroke:#4788C7;stroke-linecap:round;stroke-miterlimit:10;" x1="16.5" y1="32.5" x2="22.5" y2="32.5"/>
<line style="fill:none;stroke:#4788C7;stroke-linecap:round;stroke-miterlimit:10;" x1="16.5" y1="26.5" x2="22.5" y2="26.5"/>
</svg>
