<?xml version="1.0" encoding="iso-8859-1"?>
<!-- Generator: Adobe Illustrator 21.0.2, SVG Export Plug-In . SVG Version: 6.00 Build 0)  -->
<svg xmlns="http://www.w3.org/2000/svg" xmlns:xlink="http://www.w3.org/1999/xlink" version="1.1" id="Layer_1" x="0px" y="0px" viewBox="0 0 40 40" style="enable-background:new 0 0 40 40;" xml:space="preserve">
<g>
	<g>
		<path style="fill:#DFF0FE;" d="M0.5,33.5v-27h2.403c0.246,0,0.453,0.176,0.493,0.418L3.66,8.5h32.68l0.264-1.582    c0.04-0.242,0.248-0.418,0.493-0.418H39.5v27H0.5z"/>
	</g>
	<g>
		<path style="fill:#4788C7;" d="M2.903,7l0.194,1.164L3.236,9h0.847h31.833h0.847l0.139-0.836L37.097,7H39v1v5.5V33H1V13.5V8V7    H2.903 M40,6h-2.903c-0.489,0-0.906,0.353-0.986,0.836L35.917,8H4.083L3.889,6.836C3.809,6.353,3.392,6,2.903,6H0v2v5.5V34h40    V13.5V8V6L40,6z"/>
	</g>
</g>
<rect x="4" y="12" style="fill:#B6DCFE;" width="32" height="18"/>
<line style="fill:#98CCFD;stroke:#4788C7;stroke-linecap:round;stroke-miterlimit:10;" x1="35.5" y1="29.5" x2="35.5" y2="12.5"/>
<line style="fill:#98CCFD;stroke:#4788C7;stroke-linecap:round;stroke-miterlimit:10;" x1="31.5" y1="29.5" x2="31.5" y2="12.5"/>
<line style="fill:#98CCFD;stroke:#4788C7;stroke-linecap:round;stroke-miterlimit:10;" x1="27.5" y1="29.5" x2="27.5" y2="12.5"/>
<line style="fill:#98CCFD;stroke:#4788C7;stroke-linecap:round;stroke-miterlimit:10;" x1="23.5" y1="29.5" x2="23.5" y2="12.5"/>
<line style="fill:#98CCFD;stroke:#4788C7;stroke-linecap:round;stroke-miterlimit:10;" x1="16.5" y1="29.5" x2="16.5" y2="12.5"/>
<line style="fill:#98CCFD;stroke:#4788C7;stroke-linecap:round;stroke-miterlimit:10;" x1="12.5" y1="29.5" x2="12.5" y2="12.5"/>
<line style="fill:#98CCFD;stroke:#4788C7;stroke-linecap:round;stroke-miterlimit:10;" x1="8.5" y1="29.5" x2="8.5" y2="12.5"/>
<line style="fill:#98CCFD;stroke:#4788C7;stroke-linecap:round;stroke-miterlimit:10;" x1="4.5" y1="29.5" x2="4.5" y2="12.5"/>
</svg>
