<?xml version="1.0" encoding="iso-8859-1"?>
<!-- Generator: Adobe Illustrator 21.0.2, SVG Export Plug-In . SVG Version: 6.00 Build 0)  -->
<svg xmlns="http://www.w3.org/2000/svg" xmlns:xlink="http://www.w3.org/1999/xlink" version="1.1" id="Layer_1" x="0px" y="0px" viewBox="0 0 40 40" style="enable-background:new 0 0 40 40;" xml:space="preserve">
<g>
	<polygon style="fill:#DFF0FE;" points="2.5,37.5 2.5,7.207 7.207,2.5 32.793,2.5 37.5,7.207 37.5,37.5  "/>
	<path style="fill:#4788C7;" d="M32.586,3L37,7.414L37,37H3L3,7.414L7.414,3H32.586 M33,2H7L2,7l0,31h36l0-31L33,2L33,2z"/>
</g>
<g>
	<polygon style="fill:#98CCFD;" points="32.5,7.5 32.5,2.5 32.793,2.5 37.5,7.207 37.5,7.5  "/>
	<g>
		<path style="fill:#4788C7;" d="M33,3.414L36.586,7H33V3.414 M33,2h-1v6h6l0-1L33,2L33,2z"/>
	</g>
</g>
<g>
	<polygon style="fill:#98CCFD;" points="2.5,7.5 2.5,7.207 7.207,2.5 7.5,2.5 7.5,7.5  "/>
	<g>
		<path style="fill:#4788C7;" d="M7,3.414V7H3.414L7,3.414 M8,2H7L2,7l0,1h6V2L8,2z"/>
	</g>
</g>
<line style="fill:none;stroke:#4788C7;stroke-miterlimit:10;" x1="2" y1="7.5" x2="38" y2="7.5"/>
<g>
	<g>
		<path style="fill:#4788C7;" d="M24,12h-4h-4c-0.552,0-1,0.448-1,1c0,0.552,0.448,1,1,1h4h4c0.552,0,1-0.448,1-1    C25,12.448,24.552,12,24,12z"/>
	</g>
</g>
<g>
	<rect x="7.5" y="2.5" style="fill:#B6DCFE;" width="25" height="5"/>
	<path style="fill:#4788C7;" d="M32,3v4H8V3H32 M33,2H7v6h26V2L33,2z"/>
</g>
</svg>
