<?xml version="1.0" encoding="iso-8859-1"?>
<!-- Generator: Adobe Illustrator 19.2.0, SVG Export Plug-In . SVG Version: 6.00 Build 0)  -->
<svg xmlns="http://www.w3.org/2000/svg" xmlns:xlink="http://www.w3.org/1999/xlink" version="1.1" id="Layer_1" x="0px" y="0px" viewBox="0 0 40 40" style="enable-background:new 0 0 40 40;" xml:space="preserve">
<g>
	<path style="fill:#B6DCFE;" d="M30.597,38.5c-0.629,0-1.24-0.126-1.815-0.376c-3.455-1.498-10.136-4.896-16.073-10.833   S3.374,14.673,1.876,11.219C1.118,9.471,1.512,7.458,2.879,6.091l3.727-3.727C7.163,1.807,7.904,1.5,8.693,1.5   c0.789,0,1.53,0.307,2.087,0.865l4.883,4.883c0.542,0.542,0.833,1.297,0.818,2.126c-0.014,0.796-0.312,1.543-0.818,2.049   l-5.11,5.11l0.112,0.301c0.061,0.163,1.522,4.028,4.998,7.503c3.475,3.476,7.34,4.938,7.503,4.998l0.301,0.112l5.11-5.11   c0.558-0.558,1.299-0.865,2.088-0.865c0.789,0,1.53,0.307,2.087,0.865l4.883,4.883c1.151,1.151,1.151,3.024,0,4.175l-3.727,3.727   C33.033,37.998,31.825,38.5,30.597,38.5z"/>
	<g>
		<path style="fill:#4788C7;" d="M8.693,2c0.655,0,1.271,0.255,1.734,0.718l4.883,4.883c0.977,0.977,0.802,2.666,0,3.468    l-4.883,4.883l-0.454,0.454l0.224,0.602c0.062,0.167,1.561,4.131,5.113,7.683c3.552,3.552,7.516,5.051,7.683,5.113l0.602,0.224    l0.454-0.454l4.883-4.883c0.463-0.463,1.079-0.718,1.734-0.718c0.655,0,1.271,0.255,1.734,0.718l4.883,4.883    c0.956,0.956,0.956,2.512,0,3.468l-3.726,3.726C32.772,37.551,31.693,38,30.596,38c-0.56,0-1.103-0.113-1.616-0.335    c-3.422-1.483-10.04-4.85-15.918-10.727C7.184,21.06,3.818,14.442,2.335,11.02C1.659,9.461,2.012,7.666,3.232,6.445l3.726-3.726    C7.422,2.255,8.038,2,8.693,2 M8.693,1C7.81,1,6.926,1.337,6.252,2.011L2.525,5.738c-1.492,1.492-1.947,3.744-1.108,5.68    c1.658,3.826,5.067,10.356,10.938,16.227c5.871,5.871,12.402,9.279,16.227,10.938C29.232,38.864,29.916,39,30.596,39    c1.347,0,2.675-0.534,3.666-1.525l3.726-3.726c1.348-1.348,1.348-3.534,0-4.883l-4.883-4.883    c-0.674-0.674-1.558-1.011-2.441-1.011s-1.767,0.337-2.441,1.011l-4.883,4.883c0,0-3.886-1.444-7.324-4.883    c-3.438-3.438-4.883-7.324-4.883-7.324l4.883-4.883c1.223-1.223,1.348-3.534,0-4.883l-4.883-4.883C10.46,1.337,9.577,1,8.693,1    L8.693,1z"/>
	</g>
</g>
</svg>
