<?xml version="1.0" encoding="iso-8859-1"?>
<!-- Generator: Adobe Illustrator 21.0.2, SVG Export Plug-In . SVG Version: 6.00 Build 0)  -->
<svg xmlns="http://www.w3.org/2000/svg" xmlns:xlink="http://www.w3.org/1999/xlink" version="1.1" id="Layer_1" x="0px" y="0px" viewBox="0 0 40 40" style="enable-background:new 0 0 40 40;" xml:space="preserve">
<g>
	<g>
		<path style="fill:#B6DCFE;" d="M23.234,31v-1.357h-6.468V31H5.442L1.661,15.875c-0.363-1.453-0.096-3.001,0.733-4.249    s2.153-2.093,3.633-2.321l2.155-0.332l0.122-0.188C9.232,7.355,10.801,6.5,12.5,6.5c0.494,0,0.984,0.073,1.457,0.217l0.363,0.11    l0.204-0.319C15.728,4.625,17.775,3.5,20,3.5s4.272,1.125,5.476,3.008l0.204,0.319l0.363-0.11C26.516,6.573,27.006,6.5,27.5,6.5    c1.699,0,3.268,0.855,4.196,2.287l0.122,0.188l2.155,0.332c1.48,0.228,2.804,1.074,3.633,2.321s1.096,2.796,0.733,4.249L34.558,31    H23.234z"/>
	</g>
	<g>
		<path style="fill:#4788C7;" d="M20,4c2.053,0,3.943,1.038,5.055,2.777l0.408,0.639l0.725-0.221C26.615,7.066,27.056,7,27.5,7    c1.529,0,2.941,0.77,3.776,2.059l0.244,0.376l0.443,0.068l1.934,0.297c1.361,0.209,2.53,0.956,3.293,2.103    c0.762,1.147,0.998,2.514,0.664,3.85L34.167,30.5H23.734v-0.357v-1h-1h-5.468h-1v1V30.5H5.833L2.146,15.754    c-0.334-1.336-0.098-2.703,0.664-3.85c0.762-1.147,1.932-1.894,3.293-2.103l1.934-0.297L8.48,9.435l0.244-0.376    C9.559,7.77,10.971,7,12.5,7c0.444,0,0.885,0.066,1.312,0.196l0.725,0.221l0.408-0.639C16.057,5.038,17.947,4,20,4 M20,3    c-2.48,0-4.654,1.293-5.897,3.239C13.596,6.084,13.058,6,12.5,6c-1.936,0-3.635,1.003-4.615,2.515L5.951,8.812    c-3.396,0.522-5.608,3.851-4.775,7.185L5.052,31.5h12.214v-1.357h5.468V31.5h12.214l3.876-15.503    c0.833-3.333-1.379-6.662-4.775-7.185l-1.934-0.297C31.135,7.003,29.436,6,27.5,6c-0.558,0-1.096,0.084-1.603,0.239    C24.654,4.293,22.48,3,20,3L20,3z"/>
	</g>
</g>
<g>
	<path style="fill:#DFF0FE;" d="M17,4.812c-0.79,0.459-1.477,1.098-2,1.89v20.466h2V4.812z"/>
	<path style="fill:#DFF0FE;" d="M7,27.169h2V8.686c-0.096,0.12-0.191,0.242-0.276,0.373L8.48,9.435L8.037,9.503L7,9.663V27.169z"/>
	<path style="fill:#DFF0FE;" d="M35,10.117v17.052l2-8v-7.496C36.473,10.975,35.793,10.441,35,10.117z"/>
	<path style="fill:#DFF0FE;" d="M31,27.169h2V9.663l-1.037-0.159L31.52,9.435l-0.244-0.376C31.191,8.928,31.096,8.806,31,8.686   V27.169z"/>
	<path style="fill:#DFF0FE;" d="M25,27.169V6.703c-0.523-0.792-1.21-1.432-2-1.89v22.357H25z"/>
	<path style="fill:#DFF0FE;" d="M27,7.037v20.132h2V7.264C28.525,7.096,28.02,7,27.5,7C27.332,7,27.166,7.018,27,7.037z"/>
	<path style="fill:#DFF0FE;" d="M3,19.169l2,8V10.117c-0.793,0.324-1.473,0.858-2,1.557V19.169z"/>
	<path style="fill:#DFF0FE;" d="M11,7.264v19.905h2V7.037C12.834,7.018,12.668,7,12.5,7C11.98,7,11.475,7.096,11,7.264z"/>
	<path style="fill:#DFF0FE;" d="M19,27.169h2V4.094C20.672,4.038,20.34,4,20,4s-0.672,0.038-1,0.094V27.169z"/>
</g>
<g>
	<rect x="1.5" y="28" style="fill:#98CCFD;" width="4" height="7.5"/>
	<g>
		<path style="fill:#4788C7;" d="M5,28.5V35H2v-6.5H5 M6,27.5H1V36h5V27.5L6,27.5z"/>
	</g>
</g>
<g>
	<rect x="34.5" y="28" style="fill:#98CCFD;" width="4" height="7.5"/>
	<g>
		<path style="fill:#4788C7;" d="M38,28.5V35h-3v-6.5H38 M39,27.5h-5V36h5V27.5L39,27.5z"/>
	</g>
</g>
<g>
	<g>
		<path style="fill:#B6DCFE;" d="M1.5,32.5v-10c0-1.654,1.346-3,3-3s3,1.346,3,3v1.09l0.571-0.082C8.141,23.498,15.162,22.5,20,22.5    c4.839,0,11.859,0.998,11.929,1.008L32.5,23.59V22.5c0-1.654,1.346-3,3-3s3,1.346,3,3v10H1.5z"/>
	</g>
	<g>
		<path style="fill:#4788C7;" d="M35.5,20c1.379,0,2.5,1.121,2.5,2.5v0.513V28v4H2v-4v-4.987V22.5C2,21.121,3.122,20,4.5,20    S7,21.121,7,22.5v0.513l0,1.153l1.142-0.164C8.212,23.993,15.198,23,20,23c4.802,0,11.788,0.993,11.858,1.003L33,24.167v-1.153    V22.5C33,21.121,34.121,20,35.5,20 M35.5,19c-1.933,0-3.5,1.567-3.5,3.5v0.513c0,0-7.069-1.013-12-1.013    c-4.931,0-12,1.013-12,1.013V22.5C8,20.567,6.433,19,4.5,19S1,20.567,1,22.5v0.513V28v5h38v-5v-4.987V22.5    C39,20.567,37.433,19,35.5,19L35.5,19z"/>
	</g>
</g>
<circle style="fill:#4788C7;" cx="26" cy="15" r="1"/>
<circle style="fill:#4788C7;" cx="14" cy="15" r="1"/>
<g>
	<path style="fill:#DFF0FE;" d="M21,23.013C20.659,23.005,20.324,23,20,23c-0.324,0-0.659,0.005-1,0.013v8.844h2V23.013z"/>
	<path style="fill:#DFF0FE;" d="M17,23.099c-0.667,0.039-1.339,0.087-2,0.141v8.618h2V23.099z"/>
	<path style="fill:#DFF0FE;" d="M9,31.857v-7.981c-0.524,0.068-0.845,0.112-0.86,0.114L7,24.151v7.706H9z"/>
	<path style="fill:#DFF0FE;" d="M13,23.42c-0.719,0.071-1.392,0.144-2,0.213v8.224h2V23.42z"/>
	<path style="fill:#DFF0FE;" d="M29,23.634c-0.608-0.069-1.281-0.142-2-0.213v8.437h2V23.634z"/>
	<path style="fill:#DFF0FE;" d="M25,23.239c-0.662-0.054-1.333-0.102-2-0.141v8.759h2V23.239z"/>
	<path style="fill:#DFF0FE;" d="M3,20.513v11.344h2V20.051C4.838,20.018,4.671,20,4.5,20C3.935,20,3.419,20.195,3,20.513z"/>
	<path style="fill:#DFF0FE;" d="M35,20.051v11.807h2V20.513C36.581,20.195,36.065,20,35.5,20C35.329,20,35.162,20.018,35,20.051z"/>
	<path style="fill:#DFF0FE;" d="M33,24.151l-1.14-0.161c-0.014-0.002-0.336-0.047-0.86-0.114v7.981h2V24.151z"/>
</g>
</svg>
