<?xml version="1.0" encoding="iso-8859-1"?>
<!-- Generator: Adobe Illustrator 21.0.2, SVG Export Plug-In . SVG Version: 6.00 Build 0)  -->
<svg xmlns="http://www.w3.org/2000/svg" xmlns:xlink="http://www.w3.org/1999/xlink" version="1.1" id="Layer_1" x="0px" y="0px" viewBox="0 0 40 40" style="enable-background:new 0 0 40 40;" xml:space="preserve">
<g>
	<path style="fill:#98CCFD;" d="M4,20.5c-0.827,0-1.5-0.673-1.5-1.5v-1c0-0.827,0.673-1.5,1.5-1.5h32c0.827,0,1.5,0.673,1.5,1.5v1   c0,0.827-0.673,1.5-1.5,1.5H4z"/>
	<g>
		<path style="fill:#4788C7;" d="M36,17c0.551,0,1,0.449,1,1v1c0,0.551-0.449,1-1,1H4c-0.551,0-1-0.449-1-1v-1c0-0.551,0.449-1,1-1    H36 M36,16H4c-1.105,0-2,0.895-2,2v1c0,1.105,0.895,2,2,2h32c1.105,0,2-0.895,2-2v-1C38,16.895,37.105,16,36,16L36,16z"/>
	</g>
</g>
<g>
	<path style="fill:#B6DCFE;" d="M31.5,34.5c-0.552,0-1-0.449-1-1v-6h5v6c0,0.551-0.448,1-1,1H31.5z"/>
	<path style="fill:#4788C7;" d="M35,28v5.5c0,0.276-0.224,0.5-0.5,0.5h-3c-0.276,0-0.5-0.224-0.5-0.5V28H35 M36,27h-6v6.5   c0,0.828,0.672,1.5,1.5,1.5h3c0.828,0,1.5-0.672,1.5-1.5V27L36,27z"/>
</g>
<g>
	<path style="fill:#B6DCFE;" d="M5.5,34.5c-0.552,0-1-0.449-1-1v-6h5v6c0,0.551-0.448,1-1,1H5.5z"/>
	<path style="fill:#4788C7;" d="M9,28v5.5C9,33.776,8.776,34,8.5,34h-3C5.224,34,5,33.776,5,33.5V28H9 M10,27H4v6.5   C4,34.328,4.672,35,5.5,35h3c0.828,0,1.5-0.672,1.5-1.5V27L10,27z"/>
</g>
<g>
	<g>
		<path style="fill:#98CCFD;" d="M7,31.5c-1.379,0-2.5-1.122-2.5-2.5v-9.083l1.036-2.626l2.357-8.928    C8.183,7.266,9.178,6.5,10.312,6.5h19.377c1.134,0,2.129,0.766,2.418,1.863l2.339,8.872l1.055,2.682V29c0,1.378-1.121,2.5-2.5,2.5    H7z"/>
	</g>
	<g>
		<path style="fill:#4788C7;" d="M29.688,7c0.907,0,1.703,0.613,1.934,1.49l2.339,8.872l0.015,0.057l0.022,0.055L35,20.012V29    c0,1.103-0.897,2-2,2H7c-1.103,0-2-0.897-2-2v-8.988l1.002-2.537l0.022-0.055l0.015-0.057L8.378,8.49    C8.609,7.613,9.404,7,10.312,7H29.688 M29.688,6H10.312C8.949,6,7.758,6.918,7.411,8.235l-2.339,8.872L4,19.821V29    c0,1.657,1.343,3,3,3h26c1.657,0,3-1.343,3-3v-9.179l-1.071-2.714l-2.339-8.872C32.242,6.918,31.051,6,29.688,6L29.688,6z"/>
	</g>
</g>
<circle style="fill:#FFFFFF;" cx="31" cy="23" r="2"/>
<circle style="fill:#FFFFFF;" cx="9" cy="23" r="2"/>
<g>
	<path style="fill:#DFF0FE;" d="M12.6,31.5l1.049-5.769c0.13-0.713,0.75-1.231,1.476-1.231h9.752c0.726,0,1.346,0.518,1.476,1.231   L27.4,31.5H12.6z"/>
	<g>
		<path style="fill:#4788C7;" d="M24.876,25c0.484,0,0.897,0.345,0.984,0.821L26.802,31H13.198l0.942-5.179    C14.226,25.345,14.64,25,15.124,25H24.876 M24.876,24h-9.753c-0.967,0-1.795,0.691-1.968,1.642L12,32h16l-1.156-6.358    C26.671,24.691,25.843,24,24.876,24L24.876,24z"/>
	</g>
</g>
<rect x="4" y="17" style="fill:#98CCFD;" width="32" height="3"/>
<g>
	<path style="fill:#DFF0FE;" d="M5.749,16.5l2.146-8.137C8.184,7.266,9.177,6.5,10.312,6.5h19.377c1.135,0,2.128,0.766,2.417,1.863   l2.146,8.137H5.749z"/>
	<g>
		<path style="fill:#4788C7;" d="M29.688,7c0.907,0,1.703,0.613,1.934,1.49l1.98,7.51H6.398l1.98-7.51C8.609,7.613,9.404,7,10.312,7    H29.688 M29.688,6H10.312C8.949,6,7.758,6.918,7.411,8.235L5.1,17H34.9l-2.311-8.765C32.242,6.918,31.051,6,29.688,6L29.688,6z"/>
	</g>
</g>
<g>
	<polygon style="fill:#B6DCFE;" points="14.809,6.5 16.309,3.5 23.691,3.5 25.191,6.5  "/>
	<path style="fill:#4788C7;" d="M23.382,4l1,2h-8.764l1-2H23.382 M24,3h-8l-2,4h12L24,3L24,3z"/>
</g>
</svg>
