<?xml version="1.0" encoding="iso-8859-1"?>
<!-- Generator: Adobe Illustrator 21.0.2, SVG Export Plug-In . SVG Version: 6.00 Build 0)  -->
<svg xmlns="http://www.w3.org/2000/svg" xmlns:xlink="http://www.w3.org/1999/xlink" version="1.1" id="Layer_1" x="0px" y="0px" viewBox="0 0 40 40" style="enable-background:new 0 0 40 40;" xml:space="preserve">
<g>
	<polygon style="fill:#DFF0FE;" points="33.5,38.5 33.5,35.5 5.5,35.5 5.5,38.5 1.5,38.5 1.5,32.5 37.5,32.5 37.5,38.5  "/>
	<g>
		<path style="fill:#4788C7;" d="M37,33v5h-3v-2v-1h-1H6H5v1v2H2v-5H37 M38,32H1v7h5v-3h27v3h5V32L38,32z"/>
	</g>
</g>
<g>
	<rect x="1.5" y="1.5" style="fill:#DFF0FE;" width="36" height="34"/>
	<g>
		<path style="fill:#4788C7;" d="M37,2v33H2V2H37 M38,1H1v35h37V1L38,1z"/>
	</g>
</g>
<line style="fill:none;stroke:#4788C7;stroke-miterlimit:10;" x1="19.5" y1="1.5" x2="19.5" y2="35.5"/>
<line style="fill:none;stroke:#4788C7;stroke-linecap:round;stroke-miterlimit:10;" x1="16.5" y1="15.5" x2="16.5" y2="21.5"/>
<line style="fill:none;stroke:#4788C7;stroke-linecap:round;stroke-miterlimit:10;" x1="22.5" y1="15.5" x2="22.5" y2="21.5"/>
</svg>
